<svg width="16" height="14" viewBox="0 0 16 14" fill="none" xmlns="http://www.w3.org/2000/svg">
<path d="M1.41274 0.0160994C1.41914 0.025759 1.45434 0.0692272 1.48794 0.111086C1.73273 0.404094 1.91672 0.880635 2.01592 1.48114C2.08152 1.87557 2.08472 1.99954 2.08472 3.50322V4.90386H1.41594C0.804768 4.90386 0.734371 4.90064 0.614375 4.87649C0.425583 4.83625 0.230391 4.72838 0.099196 4.58993C-0.00479981 4.47884 -0.00159994 4.4724 0.00479981 4.80888C0.0127995 5.0874 0.0159994 5.11799 0.0559978 5.26932C0.119995 5.5092 0.207992 5.6879 0.340786 5.84729C0.521579 6.06624 0.705572 6.18859 0.967961 6.2707C1.02396 6.2868 1.14235 6.29324 1.56154 6.29646L2.08472 6.30451V7.70032L1.34715 7.69549L0.606376 7.69066L0.478381 7.63914C0.326387 7.57797 0.25759 7.53289 0.108796 7.39926L0 7.30106L0.00639974 7.60856C0.0143994 7.89351 0.0159994 7.92571 0.0559978 8.07061C0.195192 8.58257 0.531179 8.94802 0.974361 9.06716C1.08476 9.09775 1.12795 9.09936 1.59034 9.1058L2.08472 9.11224V10.5547C2.08472 11.4257 2.07992 12.0681 2.07192 12.1776C2.06392 12.2774 2.03832 12.4641 2.01592 12.5945C1.91192 13.195 1.72473 13.6474 1.45594 13.9404L1.40154 14H4.10704C5.72457 14 6.93412 13.9936 7.11172 13.9855C7.4237 13.9694 8.11967 13.9002 8.27647 13.8664C8.32607 13.8567 8.41886 13.8422 8.47966 13.8326C8.60926 13.8132 8.82365 13.7682 9.13243 13.6893C9.56762 13.5798 9.9644 13.443 10.3532 13.2691C10.4748 13.2144 10.8236 13.0356 10.9164 12.9793C10.966 12.9503 11.0252 12.9149 11.0476 12.9036C11.11 12.8698 11.214 12.8022 11.3659 12.6927C11.4411 12.638 11.5163 12.5849 11.5323 12.5736C11.5995 12.5285 11.8315 12.3337 11.9371 12.2355C12.3387 11.8636 12.6747 11.4499 12.9355 11.0071C12.9723 10.9427 13.0203 10.8622 13.0411 10.8284C13.0939 10.7383 13.3115 10.2875 13.3323 10.2199C13.3419 10.1893 13.3547 10.1571 13.3611 10.1506C13.4027 10.0959 13.6427 9.33602 13.6715 9.17019C13.6811 9.11706 13.6859 9.10902 13.7259 9.10097C13.7515 9.09614 14.1242 9.09614 14.5546 9.09936C15.1285 9.10365 15.4788 9.13531 15.6058 9.19434C15.713 9.24425 15.745 9.26679 15.8634 9.37465C16.0186 9.51472 16.0042 9.53726 15.9946 9.18629C15.9882 8.98022 15.9802 8.85304 15.9658 8.80152C15.9114 8.6035 15.8986 8.56164 15.8506 8.46182C15.6938 8.1173 15.4314 7.87098 15.0954 7.75345L14.9642 7.70515L14.4298 7.69871L13.897 7.69066L13.9034 7.5023C13.9098 7.25437 13.9098 6.76334 13.9018 6.51058L13.8954 6.30773L14.609 6.30451C15.2202 6.30129 15.3338 6.30451 15.401 6.32222C15.6026 6.37857 15.7386 6.45584 15.905 6.60879L15.9978 6.69572V6.45745C15.9978 6.1741 15.9834 6.04853 15.9258 5.86178C15.8122 5.48344 15.5882 5.2017 15.2682 5.02783C15.0602 4.91513 15.0474 4.91191 14.3322 4.90708C13.913 4.90386 13.6939 4.89742 13.6827 4.88776C13.6731 4.8781 13.6651 4.86201 13.6651 4.84913C13.6651 4.83625 13.6411 4.73482 13.6091 4.62534C13.2347 3.29393 12.5355 2.2362 11.5131 1.45216C11.3739 1.3443 11.0332 1.1173 10.8956 1.04002C10.8428 1.00943 10.7852 0.977231 10.7708 0.967571C10.7036 0.930543 10.318 0.74057 10.222 0.700322C10.1644 0.674563 10.0892 0.642364 10.0556 0.629485C9.49082 0.383165 8.54366 0.149724 7.82049 0.0772769C7.70209 0.0660074 7.5453 0.0482981 7.4733 0.0418583C7.14691 0.00482981 6.69413 0 4.12304 0C1.95032 0 1.40474 0.00482981 1.41274 0.0160994ZM6.70373 0.713201C7.24451 0.7454 7.5773 0.787259 7.96608 0.882245C9.15323 1.16559 9.9884 1.76449 10.5948 2.76587C10.6508 2.85925 10.8876 3.34545 10.9228 3.44365C11.0908 3.89926 11.1724 4.16973 11.2444 4.52714C11.2619 4.61408 11.2859 4.72999 11.2971 4.78473C11.3083 4.83786 11.3131 4.88776 11.3083 4.89259C11.3003 4.89903 9.69401 4.90225 7.73569 4.90064L4.17583 4.89742L4.17103 2.82866C4.16943 1.69204 4.17103 0.74701 4.17583 0.729301L4.18223 0.698712H5.31979C5.94376 0.698712 6.56774 0.705152 6.70373 0.713201ZM11.4635 6.35281C11.4747 6.42203 11.4747 7.59729 11.4635 7.65524L11.4539 7.69871L7.81409 7.69549L4.17583 7.69066L4.17263 7.00805C4.16943 6.63293 4.17263 6.32061 4.17583 6.31417C4.18063 6.30612 5.73097 6.30129 7.81889 6.30129H11.4539L11.4635 6.35281ZM11.3003 9.11707C11.3083 9.14121 11.2699 9.33924 11.1916 9.66122C11.102 10.0235 10.9804 10.3889 10.8572 10.6594C10.7964 10.7978 10.6444 11.0973 10.6076 11.1536C10.59 11.1794 10.5388 11.2615 10.494 11.3339C10.206 11.7879 9.79481 12.2017 9.32603 12.5076C9.15483 12.6171 8.80285 12.8038 8.70845 12.8328C8.68925 12.8376 8.66845 12.8473 8.66045 12.8537C8.64925 12.8634 8.50366 12.9181 8.33407 12.9793C8.02208 13.0904 7.4285 13.2111 6.95172 13.261C6.64293 13.2916 6.59334 13.2932 5.40458 13.2932H4.17423V9.11546L7.70849 9.10902C9.65241 9.1058 11.2539 9.10097 11.2667 9.09775C11.2811 9.09614 11.2955 9.1058 11.3003 9.11707Z" fill="#FF1645"/>
</svg>
