<svg width="160" height="49" viewBox="0 0 160 49" fill="none" xmlns="http://www.w3.org/2000/svg">
<g clip-path="url(#clip0_1047_8652)">
<path d="M153.675 49H5.58177C2.50466 49 0 46.3932 0 43.2021V5.78935C0 2.597 2.50466 0 5.58177 0H153.675C156.751 0 159.344 2.597 159.344 5.78935V43.2021C159.344 46.3932 156.751 49 153.675 49Z" fill="#C0C1C1"/>
<path d="M158.202 43.2033C158.202 45.7954 156.178 47.8951 153.676 47.8951H5.58108C3.07997 47.8951 1.0498 45.7954 1.0498 43.2033V5.78821C1.0498 3.19734 3.07997 1.09033 5.58108 1.09033H153.674C156.178 1.09033 158.202 3.19734 158.202 5.78821V43.2033Z" fill="black"/>
<path d="M52.6388 8.89941C53.1475 8.89941 53.6326 9.00713 54.0954 9.20738C54.5569 9.40915 54.9325 9.68222 55.2047 10.019L54.5864 10.6592C54.1117 10.0842 53.4654 9.80055 52.6388 9.80055C51.8933 9.80055 51.247 10.0675 50.6983 10.6061C50.1556 11.1462 49.8835 11.8455 49.8835 12.7042C49.8835 13.5628 50.1556 14.2682 50.6983 14.8083C51.247 15.3408 51.8933 15.6138 52.6388 15.6138C53.43 15.6138 54.0954 15.3408 54.6205 14.8022C54.9665 14.4457 55.1632 13.9542 55.215 13.3262H52.6388V12.4493H56.0757C56.1172 12.639 56.129 12.8225 56.129 13C56.129 14.0134 55.8333 14.8251 55.2506 15.4304C54.5805 16.1479 53.708 16.5089 52.6388 16.5089C51.6167 16.5089 50.7442 16.1418 50.0284 15.4183C49.3112 14.6839 48.9531 13.7829 48.9531 12.7042C48.9531 11.6256 49.3112 10.7244 50.0284 9.99625C50.7442 9.26655 51.6167 8.89941 52.6388 8.89941ZM84.5172 8.89941C85.5451 8.89941 86.4117 9.26655 87.1113 10.0084C87.8153 10.7487 88.1628 11.6438 88.1628 12.7042C88.1628 13.7706 87.8153 14.6718 87.1172 15.406C86.4176 16.1418 85.551 16.5089 84.5172 16.5089C83.4776 16.5089 82.6108 16.1418 81.9114 15.406C81.2133 14.6718 80.8658 13.7706 80.8658 12.7042C80.8658 11.6377 81.2133 10.7366 81.9114 10.0023C82.6108 9.26655 83.4776 8.89941 84.5172 8.89941ZM61.5818 9.0663V9.95984H58.3534V12.2658H61.2639V13.1426H58.3534V15.4486H61.5818V16.342H57.4393V9.0663H61.5818ZM67.4119 9.0663V9.95984H65.4301V16.342H64.516V9.95984H62.5358V9.0663H67.4119ZM71.8531 9.0663V16.342H70.9405V9.0663H71.8531ZM77.8857 9.0663V9.95984H75.898V16.342H74.9914V9.95984H73.0037V9.0663H77.8857ZM90.5543 9.0663L94.0032 14.7249H94.0431L94.0032 13.3262V9.0663H94.9156V16.342H93.9632L90.3517 10.4043H90.3117L90.3517 11.8091V16.342H89.4451V9.0663H90.5543ZM84.5172 9.79448C83.7542 9.79448 83.1138 10.0675 82.5872 10.6122C82.0622 11.1568 81.796 11.8562 81.796 12.7042C81.796 13.5522 82.0622 14.2516 82.5872 14.7962C83.1138 15.3408 83.7542 15.6138 84.5172 15.6138C85.2744 15.6138 85.9207 15.3408 86.4414 14.7962C86.9664 14.2516 87.2326 13.5522 87.2326 12.7042C87.2326 11.8562 86.9664 11.1568 86.4414 10.6122C85.9207 10.0675 85.2744 9.79448 84.5172 9.79448Z" fill="white" stroke="white" stroke-width="0.625"/>
<path d="M80.6424 26.9675C77.8635 26.9675 75.5934 29.137 75.5934 32.13C75.5934 35.0989 77.8635 37.2911 80.6424 37.2911C83.4273 37.2911 85.6975 35.0989 85.6975 32.13C85.6975 29.137 83.4273 26.9675 80.6424 26.9675ZM80.6424 35.2583C79.1177 35.2583 77.8058 33.9673 77.8058 32.13C77.8058 30.2686 79.1177 29.0003 80.6424 29.0003C82.1673 29.0003 83.485 30.2686 83.485 32.13C83.485 33.9673 82.1673 35.2583 80.6424 35.2583ZM69.6259 26.9675C66.841 26.9675 64.5767 29.137 64.5767 32.13C64.5767 35.0989 66.841 37.2911 69.6259 37.2911C72.4092 37.2911 74.6749 35.0989 74.6749 32.13C74.6749 29.137 72.4092 26.9675 69.6259 26.9675ZM69.6259 35.2583C68.0996 35.2583 66.7833 33.9673 66.7833 32.13C66.7833 30.2686 68.0996 29.0003 69.6259 29.0003C71.1506 29.0003 72.4625 30.2686 72.4625 32.13C72.4625 33.9673 71.1506 35.2583 69.6259 35.2583ZM56.5165 28.5498V30.7435H61.6233C61.4739 31.9693 61.0747 32.8704 60.4623 33.4984C59.7169 34.2569 58.556 35.0989 56.5165 35.0989C53.3738 35.0989 50.9128 32.4971 50.9128 29.2735C50.9128 26.0497 53.3738 23.4479 56.5165 23.4479C58.2158 23.4479 59.4522 24.1292 60.3648 25.012L61.8718 23.4662C60.5955 22.2161 58.8976 21.2559 56.5165 21.2559C52.2069 21.2559 48.585 24.8527 48.585 29.2735C48.585 33.6941 52.2069 37.2911 56.5165 37.2911C58.8458 37.2911 60.5955 36.5083 61.9708 35.0398C63.3802 33.5941 63.8195 31.5611 63.8195 29.9197C63.8195 29.41 63.7781 28.9412 63.7042 28.5498H56.5165ZM110.122 30.2505C109.707 29.096 108.424 26.9675 105.813 26.9675C103.224 26.9675 101.07 29.0595 101.07 32.13C101.07 35.0216 103.202 37.2911 106.061 37.2911C108.373 37.2911 109.707 35.8453 110.255 35.0034L108.54 33.8306C107.967 34.6893 107.188 35.2583 106.061 35.2583C104.941 35.2583 104.138 34.7318 103.624 33.6941L110.354 30.8375L110.122 30.2505ZM103.26 31.9693C103.202 29.9788 104.767 28.9595 105.888 28.9595C106.766 28.9595 107.512 29.41 107.76 30.0548L103.26 31.9693ZM97.7893 36.9771H100.002V21.8066H97.7893V36.9771ZM94.1658 28.1175H94.092C93.5951 27.5137 92.647 26.9675 91.4461 26.9675C88.9259 26.9675 86.6218 29.237 86.6218 32.1468C86.6218 35.0398 88.9259 37.2911 91.4461 37.2911C92.647 37.2911 93.5951 36.7404 94.092 36.1184H94.1658V36.8587C94.1658 38.8324 93.138 39.8929 91.4802 39.8929C90.1284 39.8929 89.2898 38.8915 88.9438 38.0497L87.0196 38.8734C87.5742 40.2417 89.0428 41.9257 91.4802 41.9257C94.0741 41.9257 96.263 40.3601 96.263 36.5508V27.2815H94.1658V28.1175ZM91.6355 35.2583C90.1106 35.2583 88.8343 33.949 88.8343 32.1468C88.8343 30.3278 90.1106 29.0003 91.6355 29.0003C93.138 29.0003 94.3227 30.3278 94.3227 32.1468C94.3227 33.949 93.138 35.2583 91.6355 35.2583ZM120.481 21.8066H115.189V36.9771H117.396V31.229H120.481C122.931 31.229 125.334 29.41 125.334 26.517C125.334 23.6254 122.925 21.8066 120.481 21.8066ZM120.538 29.1187H117.396V23.9167H120.538C122.186 23.9167 123.126 25.32 123.126 26.517C123.126 27.6912 122.186 29.1187 120.538 29.1187ZM134.179 26.9386C132.584 26.9386 130.926 27.6608 130.245 29.2614L132.202 30.1032C132.624 29.2614 133.4 28.9882 134.218 28.9882C135.363 28.9882 136.525 29.6937 136.542 30.9392V31.0985C136.143 30.8618 135.288 30.5114 134.236 30.5114C132.127 30.5114 129.978 31.7023 129.978 33.9247C129.978 35.9576 131.706 37.2667 133.647 37.2667C135.132 37.2667 135.952 36.5795 136.467 35.7801H136.542V36.9527H138.673V31.1333C138.673 28.4436 136.715 26.9386 134.179 26.9386ZM133.912 35.2522C133.191 35.2522 132.185 34.8851 132.185 33.9673C132.185 32.793 133.439 32.3424 134.525 32.3424C135.497 32.3424 135.952 32.5625 136.542 32.8521C136.369 34.2569 135.19 35.2522 133.912 35.2522ZM146.437 27.2709L143.901 33.8474H143.826L141.204 27.2709H138.824L142.763 36.4612L140.516 41.5752H142.821L148.892 27.2709H146.437ZM126.547 36.9771H128.76V21.8066H126.547V36.9771Z" fill="white"/>
<path d="M12.3749 9.71689C12.0273 10.0901 11.8262 10.6711 11.8262 11.4236V38.2633C11.8262 39.0158 12.0273 39.5969 12.3749 39.97L12.4606 40.0519L27.1229 25.0179V24.6629L12.4606 9.62891L12.3749 9.71689Z" fill="url(#paint0_linear_1047_8652)"/>
<path d="M32.005 30.0316L27.123 25.0178V24.6627L32.011 19.6489L32.1204 19.7141L37.909 23.0927C39.5609 24.0514 39.5609 25.6291 37.909 26.594L32.1204 29.9664L32.005 30.0316Z" fill="url(#paint1_linear_1047_8652)"/>
<path d="M32.1194 29.9669L27.122 24.8408L12.374 39.9704C12.9227 40.5621 13.8175 40.6332 14.8349 40.0417L32.1194 29.9669Z" fill="url(#paint2_linear_1047_8652)"/>
<path d="M32.1194 19.7146L14.8349 9.63989C13.8175 9.0543 12.9227 9.12561 12.374 9.71726L27.122 24.8408L32.1194 19.7146Z" fill="url(#paint3_linear_1047_8652)"/>
</g>
<defs>
<linearGradient id="paint0_linear_1047_8652" x1="21.2027" y1="38.5428" x2="8.19548" y2="26.1557" gradientUnits="userSpaceOnUse">
<stop stop-color="#00A0FF"/>
<stop offset="0.0066" stop-color="#00A1FF"/>
<stop offset="0.2601" stop-color="#00BEFF"/>
<stop offset="0.5122" stop-color="#00D2FF"/>
<stop offset="0.7604" stop-color="#00DFFF"/>
<stop offset="1" stop-color="#00E3FF"/>
</linearGradient>
<linearGradient id="paint1_linear_1047_8652" x1="40.0601" y1="24.8386" x2="11.4316" y2="24.8386" gradientUnits="userSpaceOnUse">
<stop stop-color="#FFE000"/>
<stop offset="0.4087" stop-color="#FFBD00"/>
<stop offset="0.7754" stop-color="#FFA500"/>
<stop offset="1" stop-color="#FF9C00"/>
</linearGradient>
<linearGradient id="paint2_linear_1047_8652" x1="29.4019" y1="26.4997" x2="7.27715" y2="5.42975" gradientUnits="userSpaceOnUse">
<stop stop-color="#FF3A44"/>
<stop offset="1" stop-color="#C31162"/>
</linearGradient>
<linearGradient id="paint3_linear_1047_8652" x1="8.66164" y1="35.5148" x2="18.5391" y2="26.1085" gradientUnits="userSpaceOnUse">
<stop stop-color="#32A071"/>
<stop offset="0.0685" stop-color="#2DA771"/>
<stop offset="0.4762" stop-color="#15CF74"/>
<stop offset="0.8009" stop-color="#06E775"/>
<stop offset="1" stop-color="#00F076"/>
</linearGradient>
<clipPath id="clip0_1047_8652">
<rect width="160" height="49" fill="white"/>
</clipPath>
</defs>
</svg>
