<svg width="15" height="12" viewBox="0 0 15 12" fill="none" xmlns="http://www.w3.org/2000/svg">
<g clip-path="url(#clip0_51_895)">
<path d="M1.32445 0.0137994C1.33045 0.0220791 1.36345 0.0593376 1.39494 0.0952162C1.62443 0.346366 1.79693 0.75483 1.88992 1.26955C1.95142 1.60764 1.95442 1.71389 1.95442 3.00276V4.20331H1.32745C0.75447 4.20331 0.688472 4.20055 0.575977 4.17985C0.398984 4.14535 0.215991 4.0529 0.0929963 3.93422C-0.00449982 3.83901 -0.00149994 3.83349 0.00449982 4.1219C0.0119995 4.36063 0.0149994 4.38684 0.0524979 4.51656C0.112495 4.72217 0.194992 4.87535 0.319487 5.01196C0.48898 5.19963 0.661473 5.30451 0.907464 5.37489C0.959961 5.38868 1.07096 5.3942 1.46394 5.39696L1.95442 5.40386V6.60028L1.26295 6.59614L0.568477 6.592L0.448482 6.54784C0.305988 6.4954 0.24149 6.45676 0.101996 6.34223L0 6.25805L0.00599976 6.52162C0.0134995 6.76587 0.0149994 6.79347 0.0524979 6.91766C0.182993 7.35649 0.49798 7.66973 0.913463 7.77185C1.01696 7.79807 1.05746 7.79945 1.49094 7.80497L1.95442 7.81049V9.04692C1.95442 9.79347 1.94992 10.3441 1.94242 10.4379C1.93492 10.5235 1.91092 10.6835 1.88992 10.7953C1.79243 11.31 1.61694 11.6978 1.36495 11.9489L1.31395 12H3.85035C5.36678 12 6.50074 11.9945 6.66723 11.9876C6.95972 11.9738 7.61219 11.9144 7.75919 11.8855C7.80569 11.8772 7.89268 11.8648 7.94968 11.8565C8.07118 11.8399 8.27217 11.8013 8.56166 11.7337C8.96964 11.6398 9.34163 11.5225 9.70611 11.3735C9.82011 11.3266 10.1471 11.1734 10.2341 11.1251C10.2806 11.1003 10.3361 11.0699 10.3571 11.0603C10.4156 11.0313 10.5131 10.9733 10.6556 10.8795C10.7261 10.8326 10.7966 10.787 10.8116 10.7774C10.8746 10.7387 11.0921 10.5718 11.1911 10.4876C11.5675 10.1688 11.8825 9.81417 12.127 9.43468C12.1615 9.37949 12.2065 9.31049 12.226 9.28151C12.2755 9.20423 12.4795 8.81785 12.499 8.75989C12.508 8.73367 12.52 8.70607 12.526 8.70055C12.565 8.65363 12.79 8.0023 12.817 7.86017C12.826 7.81463 12.8305 7.80773 12.868 7.80083C12.892 7.79669 13.2415 7.79669 13.645 7.79945C14.1829 7.80313 14.5114 7.83027 14.6304 7.88086C14.7309 7.92364 14.7609 7.94296 14.8719 8.03542C15.0174 8.15547 15.0039 8.17479 14.9949 7.87396C14.9889 7.69733 14.9814 7.58832 14.9679 7.54416C14.9169 7.37443 14.9049 7.33855 14.8599 7.25299C14.7129 6.95768 14.4669 6.74655 14.1519 6.64581L14.0289 6.60442L13.528 6.5989L13.0285 6.592L13.0345 6.43054C13.0405 6.21803 13.0405 5.79715 13.033 5.5805L13.027 5.40662L13.6959 5.40386C14.2689 5.4011 14.3754 5.40386 14.4384 5.41904C14.6274 5.46734 14.7549 5.53358 14.9109 5.66467L14.9979 5.73919V5.53496C14.9979 5.29209 14.9844 5.18445 14.9304 5.02438C14.8239 4.70009 14.6139 4.4586 14.3139 4.30957C14.1189 4.21297 14.1069 4.21021 13.4365 4.20607C13.0435 4.20331 12.838 4.19779 12.8275 4.18951C12.8185 4.18123 12.811 4.16743 12.811 4.15639C12.811 4.14535 12.7885 4.05842 12.7585 3.96458C12.4075 2.82337 11.752 1.91674 10.7936 1.24471C10.6631 1.15225 10.3436 0.957682 10.2146 0.891444C10.1651 0.865225 10.1111 0.837627 10.0976 0.829347C10.0346 0.797608 9.67311 0.634775 9.58312 0.600276C9.52912 0.578197 9.45862 0.550598 9.42712 0.539558C8.89764 0.328427 8.00968 0.128335 7.33171 0.0662374C7.22071 0.0565777 7.07372 0.0413983 7.00622 0.0358786C6.70023 0.00413983 6.27575 0 3.86535 0C1.82843 0 1.31695 0.00413983 1.32445 0.0137994ZM6.28475 0.611316C6.79173 0.638914 7.10371 0.674793 7.4682 0.75621C8.58116 0.99908 9.36412 1.51242 9.9326 2.37075C9.9851 2.45078 10.2071 2.86753 10.2401 2.9517C10.3976 3.34223 10.4741 3.57406 10.5416 3.88041C10.5581 3.95492 10.5806 4.05428 10.5911 4.1012C10.6016 4.14673 10.6061 4.18951 10.6016 4.19365C10.5941 4.19917 9.08814 4.20193 7.25221 4.20055L3.91484 4.19779L3.91034 2.42456C3.90884 1.45032 3.91034 0.640294 3.91484 0.625115L3.92084 0.598896H4.9873C5.57228 0.598896 6.15725 0.604416 6.28475 0.611316ZM10.7471 5.44526C10.7576 5.5046 10.7576 6.51196 10.7471 6.56164L10.7381 6.5989L7.32571 6.59614L3.91484 6.592L3.91184 6.0069C3.90884 5.68537 3.91184 5.41766 3.91484 5.41214C3.91934 5.40524 5.37278 5.4011 7.33021 5.4011H10.7381L10.7471 5.44526ZM10.5941 7.81463C10.6016 7.83533 10.5656 8.00506 10.4921 8.28105C10.4081 8.59154 10.2941 8.90478 10.1786 9.13661C10.1216 9.25529 9.9791 9.51196 9.9446 9.56026C9.9281 9.58234 9.8801 9.65271 9.83811 9.71481C9.56812 10.104 9.18263 10.4586 8.74315 10.7208C8.58266 10.8146 8.25267 10.9747 8.16417 10.9995C8.14617 11.0037 8.12667 11.012 8.11917 11.0175C8.10867 11.0258 7.97218 11.0727 7.81319 11.1251C7.5207 11.2203 6.96422 11.3238 6.51724 11.3666C6.22775 11.3928 6.18125 11.3942 5.0668 11.3942H3.91334V7.81325L7.22671 7.80773C9.04914 7.80497 10.5506 7.80083 10.5626 7.79807C10.5761 7.79669 10.5896 7.80497 10.5941 7.81463Z" fill="black"/>
</g>
<defs>
<clipPath id="clip0_51_895">
<rect width="15" height="12" fill="white"/>
</clipPath>
</defs>
</svg>
