<svg width="159" height="50" viewBox="0 0 159 50" fill="none" xmlns="http://www.w3.org/2000/svg">
<g clip-path="url(#clip0_1047_8661)">
<path d="M152.864 50H5.55231C2.49144 50 0 47.34 0 44.0837V5.9075C0 2.65 2.49144 0 5.55231 0H152.864C155.923 0 158.503 2.65 158.503 5.9075V44.0837C158.503 47.34 155.923 50 152.864 50Z" fill="#C0C1C1"/>
<path d="M157.368 44.0848C157.368 46.7298 155.355 48.8723 152.866 48.8723H5.55325C3.06534 48.8723 1.0459 46.7298 1.0459 44.0848V5.90605C1.0459 3.2623 3.06534 1.1123 5.55325 1.1123H152.864C155.355 1.1123 157.367 3.2623 157.367 5.90605L157.368 44.0848Z" fill="black"/>
<path d="M35.3719 24.7298C35.3378 20.701 38.4702 18.741 38.6135 18.6498C36.8394 15.896 34.0898 15.5198 33.1235 15.4898C30.814 15.231 28.5738 16.961 27.3974 16.961C26.1974 16.961 24.3858 15.5148 22.4332 15.5573C19.9208 15.5985 17.5702 17.1473 16.281 19.5523C13.6205 24.456 15.6047 31.6623 18.1538 35.626C19.4288 37.5673 20.9188 39.7348 22.8689 39.6585C24.7768 39.5748 25.4895 38.3635 27.7919 38.3635C30.0732 38.3635 30.7425 39.6585 32.7313 39.6098C34.7789 39.5748 36.0682 37.6598 37.2985 35.701C38.7721 33.476 39.3638 31.2848 39.3873 31.1723C39.3392 31.1548 35.4106 29.5585 35.3719 24.7298Z" fill="white"/>
<path d="M31.6128 12.8827C32.6391 11.5165 33.3412 9.65773 33.1463 7.77148C31.6609 7.84148 29.8036 8.86523 28.734 10.2015C27.7877 11.379 26.9424 13.309 27.1607 15.1239C28.829 15.2564 30.5421 14.2277 31.6128 12.8827Z" fill="white"/>
<path fill-rule="evenodd" clip-rule="evenodd" d="M60.3195 39.3796H62.9858L57.9314 22.7446H54.8248L49.7949 39.3796H52.3907L53.7821 34.4934H58.8588L60.3195 39.3796ZM57.0982 28.0996L58.4191 32.4434H54.224L55.5214 28.0996C55.862 26.7184 56.1096 25.6734 56.2634 24.9659H56.3103C56.6967 26.6109 56.9585 27.6559 57.0982 28.0996Z" fill="white"/>
<path fill-rule="evenodd" clip-rule="evenodd" d="M74.3668 38.0712C75.4023 36.8874 75.9201 35.2749 75.9201 33.2349C75.9201 31.4087 75.4763 29.9362 74.5863 28.8162C73.6987 27.6974 72.5892 27.1387 71.2602 27.1387C69.5601 27.1387 68.2931 27.8537 67.4584 29.2862H67.4115L67.2717 27.3849H65.0703C65.1314 28.7349 65.1631 30.0512 65.1631 31.3337V44.2674H67.6662V37.9487H67.7132C68.3624 39.0837 69.4285 39.6512 70.9126 39.6512C72.2875 39.6512 73.4393 39.1249 74.3668 38.0712ZM72.6278 30.4452C73.1233 31.2027 73.3698 32.1652 73.3698 33.3327C73.3698 34.6002 73.1068 35.6202 72.5808 36.3939C72.056 37.1664 71.3222 37.554 70.3795 37.554C69.5764 37.554 68.9235 37.2539 68.421 36.6527C67.9185 36.0514 67.6672 35.3152 67.6672 34.4427V32.4427C67.6672 32.2302 67.706 31.9602 67.7835 31.6302C67.9372 30.9227 68.2661 30.3514 68.7685 29.9139C69.2699 29.4802 69.831 29.2602 70.4486 29.2602C71.3598 29.2602 72.0866 29.6552 72.6278 30.4452Z" fill="white"/>
<path fill-rule="evenodd" clip-rule="evenodd" d="M87.3225 38.0712C88.3592 36.8874 88.877 35.2749 88.877 33.2349C88.877 31.4087 88.4321 29.9362 87.5457 28.8162C86.6557 27.6974 85.5461 27.1387 84.2182 27.1387C82.517 27.1387 81.2501 27.8537 80.4165 29.2862H80.3696L80.2298 27.3849H78.0283C78.0894 28.7349 78.1212 30.0512 78.1212 31.3337V44.2674H80.6243V37.9487H80.6713C81.3194 39.0837 82.3855 39.6512 83.8696 39.6512C85.2444 39.6512 86.3962 39.1249 87.3225 38.0712ZM85.5847 30.4452C86.0802 31.2027 86.328 32.1652 86.328 33.3327C86.328 34.6002 86.065 35.6202 85.539 36.3939C85.0141 37.1664 84.2803 37.554 83.3375 37.554C82.5321 37.554 81.8793 37.2527 81.3767 36.6527C80.8765 36.0514 80.6253 35.3152 80.6253 34.4427V32.4427C80.6253 32.2302 80.6652 31.9602 80.7415 31.6302C80.8954 30.9227 81.2229 30.3514 81.7255 29.9139C82.228 29.4802 82.788 29.2602 83.4068 29.2602C84.319 29.2602 85.0434 29.6552 85.5847 30.4452Z" fill="white"/>
<path d="M103.367 34.7147C103.367 36.1297 102.906 37.281 101.979 38.1697C100.961 39.141 99.5442 39.626 97.7233 39.626C96.042 39.626 94.6941 39.281 93.6738 38.5897L94.2538 36.3685C95.3527 37.076 96.5585 37.431 97.8723 37.431C98.8151 37.431 99.549 37.2035 100.076 36.751C100.601 36.2985 100.863 35.691 100.863 34.9335C100.863 34.2585 100.647 33.6897 100.213 33.2285C99.7826 32.7672 99.0629 32.3385 98.0578 31.9422C95.3223 30.856 93.9555 29.2647 93.9555 27.1722C93.9555 25.8047 94.4346 24.6835 95.3938 23.811C96.3495 22.9372 97.6246 22.501 99.2191 22.501C100.641 22.501 101.822 22.7647 102.765 23.291L102.139 25.4635C101.258 24.9535 100.263 24.6985 99.1486 24.6985C98.268 24.6985 97.5801 24.9297 97.0869 25.3897C96.67 25.801 96.4611 26.3022 96.4611 26.896C96.4611 27.5535 96.6995 28.0972 97.1784 28.5247C97.5953 28.9197 98.3525 29.3472 99.4515 29.8085C100.796 30.3847 101.783 31.0585 102.418 31.831C103.051 32.601 103.367 33.5647 103.367 34.7147Z" fill="white"/>
<path d="M111.643 29.3852H108.884V35.209C108.884 36.6902 109.37 37.4302 110.344 37.4302C110.791 37.4302 111.162 37.389 111.456 37.3065L111.525 39.3302C111.032 39.5265 110.383 39.6252 109.579 39.6252C108.59 39.6252 107.817 39.304 107.26 38.6627C106.704 38.0202 106.425 36.9427 106.425 35.429V29.3827H104.781V27.3827H106.425V25.1865L108.884 24.3965V27.3827H111.643V29.3852Z" fill="white"/>
<path fill-rule="evenodd" clip-rule="evenodd" d="M122.607 37.8248C123.596 36.641 124.091 35.1273 124.091 33.2834C124.091 31.4896 123.612 30.0259 122.652 28.8921C121.648 27.7234 120.317 27.1396 118.664 27.1396C116.949 27.1396 115.585 27.7321 114.574 28.9171C113.56 30.1009 113.056 31.6234 113.056 33.4823C113.056 35.2585 113.546 36.7323 114.528 37.8998C115.51 39.0673 116.826 39.651 118.479 39.651C120.194 39.651 121.57 39.0435 122.607 37.8248ZM120.822 30.5233C121.272 31.3145 121.494 32.2633 121.494 33.3695C121.494 34.4745 121.261 35.4333 120.8 36.2395C120.258 37.212 119.508 37.6995 118.553 37.6995C117.577 37.6995 116.821 37.222 116.28 36.2645C115.83 35.4745 115.608 34.5258 115.608 33.4195C115.608 32.2795 115.83 31.3158 116.28 30.5233C116.804 29.567 117.569 29.0883 118.575 29.0883C119.547 29.0883 120.297 29.5658 120.822 30.5233Z" fill="white"/>
<path d="M132.229 29.7287C131.981 29.6799 131.717 29.6549 131.44 29.6549C130.559 29.6549 129.878 30.0087 129.399 30.7174C128.983 31.3424 128.774 32.1324 128.774 33.0862V39.3799H126.272L126.295 31.1624C126.295 29.7799 126.263 28.5212 126.201 27.3862H128.381L128.473 29.6812H128.542C128.807 28.8924 129.223 28.2574 129.794 27.7812C130.352 27.3524 130.954 27.1387 131.603 27.1387C131.835 27.1387 132.043 27.1562 132.229 27.1874V29.7287Z" fill="white"/>
<path fill-rule="evenodd" clip-rule="evenodd" d="M143.331 34.0232C143.394 33.6945 143.423 33.292 143.423 32.8145C143.423 31.3182 143.09 30.0582 142.43 29.0395C141.596 27.757 140.366 27.1157 138.742 27.1157C137.089 27.1157 135.775 27.757 134.802 29.0395C133.875 30.2407 133.411 31.747 133.411 33.5557C133.411 35.3982 133.909 36.867 134.906 37.9607C135.903 39.0545 137.275 39.602 139.021 39.602C140.473 39.602 141.732 39.3557 142.799 38.8607L142.407 37.0107C141.494 37.3895 140.48 37.5782 139.368 37.5782C138.363 37.5782 137.544 37.2982 136.912 36.7395C136.215 36.1145 135.852 35.2082 135.823 34.0232H143.331ZM140.549 30.0743C140.888 30.6506 141.051 31.3331 141.035 32.1231L135.821 32.1218C135.897 31.3168 136.145 30.6256 136.562 30.0493C137.071 29.3243 137.736 28.9631 138.555 28.9631C139.45 28.9631 140.116 29.3331 140.549 30.0743Z" fill="white"/>
<path fill-rule="evenodd" clip-rule="evenodd" d="M55.1739 15.8339C56.0016 15.0901 56.4161 13.9826 56.4161 12.5114C56.4161 11.2014 56.0321 10.1951 55.2667 9.49137C54.5832 8.86887 53.57 8.55762 52.2256 8.55762C51.4648 8.55762 50.7605 8.61512 50.1064 8.72762V16.7664C50.6078 16.8314 51.2066 16.8639 51.9063 16.8639C53.3176 16.8639 54.4071 16.5201 55.1739 15.8339ZM54.4073 10.3524C54.8816 10.8624 55.1188 11.5936 55.1188 12.5474C55.1188 13.6149 54.8604 14.4274 54.3486 14.9849C53.8366 15.5424 53.1098 15.8211 52.1683 15.8211C51.7655 15.8211 51.4884 15.8099 51.337 15.7849V9.6736C51.6106 9.6161 51.9405 9.5886 52.3279 9.5886C53.2402 9.5886 53.9329 9.8436 54.4073 10.3524Z" fill="white"/>
<path fill-rule="evenodd" clip-rule="evenodd" d="M62.5647 16.0275C63.0509 15.445 63.2939 14.7025 63.2939 13.7963C63.2939 12.9163 63.0579 12.1963 62.5883 11.6388C62.094 11.0651 61.4411 10.7788 60.6287 10.7788C59.7857 10.7788 59.1164 11.0701 58.6186 11.6513C58.1208 12.2326 57.873 12.9813 57.873 13.8938C57.873 14.7663 58.1138 15.49 58.5952 16.0638C59.0777 16.6388 59.7246 16.925 60.5371 16.925C61.3801 16.925 62.0553 16.6263 62.5647 16.0275ZM61.6869 12.44C61.9065 12.8288 62.0169 13.295 62.0169 13.8388C62.0169 14.3825 61.9029 14.8525 61.6751 15.2488C61.4097 15.7275 61.0411 15.9663 60.5714 15.9663C60.0924 15.9663 59.7214 15.7313 59.455 15.2613C59.2354 14.8725 59.125 14.4063 59.125 13.8625C59.125 13.3025 59.2342 12.8288 59.455 12.44C59.7132 11.97 60.089 11.735 60.5832 11.735C61.0611 11.735 61.4286 11.97 61.6869 12.44Z" fill="white"/>
<path d="M72.52 10.8989L70.7882 16.7915H69.6611L68.9437 14.2327C68.7618 13.5939 68.6138 12.9589 68.4988 12.3289H68.4765C68.3696 12.9764 68.2217 13.6102 68.0314 14.2327L67.2694 16.7915H66.1294L64.501 10.8989H65.7654L66.3912 13.7002C66.5427 14.3627 66.6672 14.994 66.767 15.5915H66.7893C66.8808 15.099 67.0323 14.4715 67.246 13.7127L68.0314 10.9002H69.0342L69.7868 13.6527C69.9687 14.324 70.1167 14.9702 70.2305 15.5927H70.2646C70.3479 14.9865 70.4736 14.3402 70.6404 13.6527L71.3119 10.9002L72.52 10.8989Z" fill="white"/>
<path d="M78.8963 16.7911H77.6659V13.4162C77.6659 12.3762 77.2949 11.8562 76.5505 11.8562C76.1853 11.8562 75.8906 11.9987 75.6617 12.2849C75.4351 12.5712 75.32 12.9087 75.32 13.2949V16.7899H74.0896V12.5824C74.0896 12.0649 74.0743 11.5037 74.0449 10.8962H75.1263L75.1838 11.8174H75.2178C75.361 11.5312 75.5748 11.2949 75.8554 11.1062C76.1889 10.8862 76.5622 10.7749 76.9708 10.7749C77.4874 10.7749 77.9171 10.9524 78.2588 11.3087C78.6837 11.7449 78.8963 12.3962 78.8963 13.2612V16.7911Z" fill="white"/>
<path d="M82.2909 16.7911H81.0615V8.19482H82.2909V16.7911Z" fill="white"/>
<path fill-rule="evenodd" clip-rule="evenodd" d="M88.806 16.0275C89.2921 15.445 89.5351 14.7025 89.5351 13.7963C89.5351 12.9163 89.2991 12.1963 88.8294 11.6388C88.334 11.0651 87.6824 10.7788 86.8687 10.7788C86.0269 10.7788 85.3576 11.0701 84.8598 11.6513C84.362 12.2326 84.1143 12.9813 84.1143 13.8938C84.1143 14.7663 84.355 15.49 84.8364 16.0638C85.3178 16.6388 85.9646 16.925 86.7783 16.925C87.6201 16.925 88.2964 16.6263 88.806 16.0275ZM87.9269 12.44C88.1465 12.8288 88.2569 13.295 88.2569 13.8388C88.2569 14.3825 88.1441 14.8525 87.9152 15.2488C87.6498 15.7275 87.2823 15.9663 86.8126 15.9663C86.3336 15.9663 85.9626 15.7313 85.696 15.2613C85.4765 14.8725 85.3661 14.4063 85.3661 13.8625C85.3661 13.3025 85.4754 12.8288 85.696 12.44C85.9532 11.97 86.329 11.735 86.8244 11.735C87.3012 11.735 87.6698 11.97 87.9269 12.44Z" fill="white"/>
<path fill-rule="evenodd" clip-rule="evenodd" d="M94.3852 16.7913H95.49C95.4372 16.4438 95.4102 15.975 95.4102 15.3863V13.2163C95.4102 11.5913 94.6846 10.7788 93.2381 10.7788C92.489 10.7788 91.8538 10.9488 91.3395 11.2876L91.5897 12.1476C92.0052 11.8576 92.4867 11.7113 93.0326 11.7113C93.7993 11.7113 94.1821 12.0988 94.1821 12.8751V12.9851C93.1571 12.9763 92.361 13.1626 91.7951 13.5426C91.228 13.9225 90.9463 14.4713 90.9463 15.1913C90.9463 15.6675 91.0907 16.0688 91.3794 16.3913C91.6977 16.7463 92.1204 16.925 92.6428 16.925C93.3425 16.925 93.8816 16.6538 94.2596 16.1125H94.2936L94.3852 16.7913ZM94.2127 13.8576V14.7664C94.2127 14.8551 94.2057 14.9326 94.1927 14.9964C94.1399 15.2801 93.9978 15.5114 93.7665 15.6939C93.5364 15.8751 93.284 15.9664 93.014 15.9664C92.7732 15.9664 92.5713 15.8901 92.4128 15.7364C92.2543 15.5826 92.1768 15.3526 92.1768 15.0451C92.1768 14.2289 92.8555 13.8326 94.2127 13.8576Z" fill="white"/>
<path fill-rule="evenodd" clip-rule="evenodd" d="M101.392 16.7911H102.484C102.454 16.3061 102.44 15.7773 102.44 15.2036V8.19482H101.209V11.5773H101.185C100.889 11.0436 100.369 10.7773 99.6259 10.7773C98.9496 10.7773 98.3813 11.0523 97.9176 11.6023C97.4386 12.1923 97.2002 12.9648 97.2002 13.9186C97.2002 14.8073 97.4197 15.5311 97.86 16.0886C98.3003 16.6461 98.8557 16.9248 99.5225 16.9248C100.357 16.9248 100.951 16.5648 101.3 15.8448H101.334L101.392 16.7911ZM101.21 13.3234V14.3059C101.21 14.7259 101.094 15.0859 100.856 15.3847C100.611 15.7084 100.288 15.8697 99.8843 15.8697C99.4345 15.8697 99.0753 15.6759 98.8088 15.2884C98.5563 14.9247 98.4307 14.4522 98.4307 13.8696C98.4307 13.2634 98.5634 12.7671 98.8252 12.3784C99.0894 11.9896 99.4487 11.7959 99.9077 11.7959C100.226 11.7959 100.502 11.9034 100.731 12.1171C100.957 12.3309 101.107 12.5959 101.176 12.9109C101.198 13.0159 101.21 13.1534 101.21 13.3234Z" fill="white"/>
<path fill-rule="evenodd" clip-rule="evenodd" d="M112.276 16.0275C112.762 15.445 113.005 14.7025 113.005 13.7963C113.005 12.9163 112.769 12.1963 112.299 11.6388C111.806 11.0651 111.152 10.7788 110.341 10.7788C109.497 10.7788 108.827 11.0701 108.33 11.6513C107.832 12.2326 107.584 12.9813 107.584 13.8938C107.584 14.7663 107.825 15.49 108.306 16.0638C108.79 16.6388 109.437 16.925 110.248 16.925C111.092 16.925 111.766 16.6263 112.276 16.0275ZM111.399 12.44C111.618 12.8288 111.729 13.295 111.729 13.8388C111.729 14.3825 111.614 14.8525 111.387 15.2488C111.122 15.7275 110.752 15.9663 110.282 15.9663C109.803 15.9663 109.432 15.7313 109.166 15.2613C108.946 14.8725 108.836 14.4063 108.836 13.8625C108.836 13.3025 108.945 12.8288 109.166 12.44C109.425 11.97 109.801 11.735 110.294 11.735C110.773 11.735 111.139 11.97 111.399 12.44Z" fill="white"/>
<path d="M119.622 16.7911H118.392V13.4162C118.392 12.3762 118.021 11.8562 117.276 11.8562C116.911 11.8562 116.616 11.9987 116.388 12.2849C116.16 12.5712 116.047 12.9087 116.047 13.2949V16.7899H114.815V12.5824C114.815 12.0649 114.801 11.5037 114.771 10.8962H115.852L115.909 11.8174H115.943C116.088 11.5312 116.301 11.2949 116.581 11.1062C116.915 10.8862 117.288 10.7749 117.697 10.7749C118.213 10.7749 118.642 10.9524 118.984 11.3087C119.41 11.7449 119.622 12.3962 119.622 13.2612V16.7911Z" fill="white"/>
<path d="M127.901 11.8799H126.546V14.7424C126.546 15.4699 126.787 15.8337 127.263 15.8337C127.484 15.8337 127.667 15.8137 127.812 15.7724L127.844 16.7662C127.6 16.8637 127.281 16.9124 126.888 16.9124C126.402 16.9124 126.024 16.7549 125.75 16.4399C125.475 16.1249 125.339 15.5949 125.339 14.8512V11.8799H124.53V10.8987H125.339V9.81865L126.545 9.43115V10.8974H127.9L127.901 11.8799Z" fill="white"/>
<path d="M134.416 16.7911H133.185V13.4411C133.185 12.3848 132.814 11.8561 132.07 11.8561C131.5 11.8561 131.11 12.1623 130.896 12.7748C130.86 12.9036 130.839 13.0611 130.839 13.2461V16.7898H129.609V8.19482H130.839V11.7461H130.862C131.25 11.0998 131.805 10.7773 132.525 10.7773C133.034 10.7773 133.455 10.9548 133.791 11.3111C134.207 11.7548 134.416 12.4148 134.416 13.2873V16.7911Z" fill="white"/>
<path fill-rule="evenodd" clip-rule="evenodd" d="M141.09 14.1601C141.119 13.9988 141.135 13.8013 141.135 13.5663C141.135 12.8313 140.972 12.2126 140.642 11.7126C140.234 11.0826 139.629 10.7676 138.833 10.7676C138.019 10.7676 137.374 11.0826 136.897 11.7126C136.441 12.3026 136.215 13.0426 136.215 13.9313C136.215 14.8363 136.457 15.5576 136.949 16.0951C137.436 16.6326 138.112 16.9013 138.97 16.9013C139.684 16.9013 140.301 16.7801 140.826 16.5376L140.634 15.6276C140.186 15.8138 139.688 15.9063 139.142 15.9063C138.649 15.9063 138.246 15.7688 137.933 15.4938C137.592 15.1863 137.415 14.7426 137.399 14.1601H141.09ZM139.722 12.2212C139.889 12.5037 139.97 12.8387 139.961 13.2275H137.398C137.438 12.8312 137.56 12.4925 137.764 12.2087C138.014 11.8525 138.341 11.675 138.743 11.675C139.183 11.675 139.509 11.8575 139.722 12.2212Z" fill="white"/>
</g>
<defs>
<clipPath id="clip0_1047_8661">
<rect width="159" height="50" fill="white"/>
</clipPath>
</defs>
</svg>
