<svg width="20" height="18" viewBox="0 0 20 18" fill="none" xmlns="http://www.w3.org/2000/svg">
<path d="M1.76593 0.0206992C1.77393 0.0331187 1.81793 0.0890064 1.85993 0.142824C2.16592 0.519549 2.39591 1.13224 2.51991 1.90432C2.6019 2.41145 2.6059 2.57084 2.6059 4.50414V6.30497H1.76993C1.00596 6.30497 0.917966 6.30083 0.767971 6.26978C0.53198 6.21803 0.287989 6.07935 0.123995 5.90133C-0.00599978 5.75851 -0.00199993 5.75023 0.00599978 6.18284C0.0159994 6.54094 0.0199993 6.58027 0.0699974 6.77484C0.149994 7.08326 0.25999 7.31302 0.425984 7.51794C0.651976 7.79945 0.881967 7.95676 1.20995 8.06233C1.27995 8.08303 1.42795 8.09131 1.95193 8.09545L2.6059 8.1058V9.90041L1.68394 9.89421L0.757972 9.888L0.597978 9.82176C0.407985 9.7431 0.321988 9.68514 0.135995 9.51334L0 9.38708L0.0079997 9.78243C0.0179993 10.1488 0.0199993 10.1902 0.0699974 10.3765C0.243991 11.0347 0.663975 11.5046 1.21795 11.6578C1.35595 11.6971 1.40995 11.6992 1.98793 11.7075L2.6059 11.7157V13.5704C2.6059 14.6902 2.5999 15.5161 2.5899 15.6569C2.5799 15.7852 2.5479 16.0253 2.51991 16.193C2.38991 16.965 2.15592 17.5467 1.81993 17.9234L1.75193 18H5.13381C7.15573 18 8.66768 17.9917 8.88967 17.9814C9.27965 17.9607 10.1496 17.8717 10.3456 17.8282C10.4076 17.8158 10.5236 17.7971 10.5996 17.7847C10.7616 17.7599 11.0296 17.7019 11.4156 17.6005C11.9596 17.4598 12.4555 17.2838 12.9415 17.0603C13.0935 16.9899 13.5295 16.7601 13.6455 16.6877C13.7075 16.6504 13.7815 16.6049 13.8095 16.5904C13.8875 16.5469 14.0175 16.46 14.2075 16.3192C14.3015 16.2489 14.3955 16.1805 14.4155 16.1661C14.4995 16.1081 14.7894 15.8576 14.9214 15.7314C15.4234 15.2532 15.8434 14.7213 16.1694 14.152C16.2154 14.0692 16.2754 13.9657 16.3014 13.9223C16.3674 13.8063 16.6394 13.2268 16.6654 13.1398C16.6774 13.1005 16.6934 13.0591 16.7014 13.0508C16.7534 12.9805 17.0534 12.0035 17.0894 11.7902C17.1014 11.7219 17.1074 11.7116 17.1574 11.7012C17.1894 11.695 17.6553 11.695 18.1933 11.6992C18.9106 11.7047 19.3486 11.7454 19.5073 11.8213C19.6413 11.8855 19.6813 11.9144 19.8293 12.0531C20.0233 12.2332 20.0053 12.2622 19.9933 11.8109C19.9853 11.546 19.9753 11.3825 19.9573 11.3162C19.8893 11.0616 19.8733 11.0078 19.8133 10.8795C19.6173 10.4365 19.2893 10.1198 18.8693 9.96872L18.7053 9.90662L18.0373 9.89834L17.3714 9.888L17.3794 9.64581C17.3874 9.32705 17.3874 8.69572 17.3774 8.37075L17.3694 8.10994L18.2613 8.1058C19.0253 8.10166 19.1673 8.1058 19.2513 8.12857C19.5033 8.20101 19.6733 8.30037 19.8813 8.49701L19.9973 8.60879V8.30244C19.9973 7.93813 19.9793 7.77668 19.9073 7.53657C19.7653 7.05014 19.4853 6.6879 19.0853 6.46435C18.8253 6.31946 18.8093 6.31532 17.9153 6.30911C17.3913 6.30497 17.1174 6.29669 17.1034 6.28427C17.0914 6.27185 17.0814 6.25115 17.0814 6.23459C17.0814 6.21803 17.0514 6.08763 17.0114 5.94687C16.5434 4.23505 15.6694 2.87512 14.3915 1.86707C14.2175 1.72838 13.7915 1.43652 13.6195 1.33717C13.5535 1.29784 13.4815 1.25644 13.4635 1.24402C13.3795 1.19641 12.8975 0.952162 12.7775 0.900414C12.7055 0.867295 12.6115 0.825897 12.5695 0.809338C11.8636 0.49264 10.6796 0.192502 9.77563 0.099356C9.62764 0.0848666 9.43165 0.0620975 9.34165 0.0538178C8.93367 0.00620975 8.36769 0 5.15381 0C2.43791 0 1.75593 0.00620975 1.76593 0.0206992ZM8.37969 0.916973C9.05566 0.958372 9.47165 1.01219 9.95763 1.13431C11.4416 1.49862 12.4855 2.26863 13.2435 3.55612C13.3135 3.67617 13.6095 4.30129 13.6535 4.42755C13.8635 5.01334 13.9655 5.36109 14.0555 5.82061C14.0775 5.93238 14.1075 6.08142 14.1215 6.15179C14.1355 6.2201 14.1415 6.28427 14.1355 6.29048C14.1255 6.29876 12.1175 6.3029 9.66964 6.30083L5.2198 6.29669L5.21381 3.63684C5.21181 2.17548 5.21381 0.960442 5.2198 0.937673L5.2278 0.898344H6.64975C7.42972 0.898344 8.20969 0.906624 8.37969 0.916973ZM14.3295 8.16789C14.3435 8.2569 14.3435 9.76794 14.3295 9.84246L14.3175 9.89834L9.76763 9.89421L5.2198 9.888L5.21581 9.01035C5.2118 8.52806 5.21581 8.1265 5.2198 8.11822C5.2258 8.10787 7.16373 8.10166 9.77363 8.10166H14.3175L14.3295 8.16789ZM14.1255 11.7219C14.1355 11.753 14.0875 12.0076 13.9895 12.4216C13.8775 12.8873 13.7255 13.3572 13.5715 13.7049C13.4955 13.8829 13.3055 14.2679 13.2595 14.3404C13.2375 14.3735 13.1735 14.4791 13.1175 14.5722C12.7575 15.1559 12.2435 15.6879 11.6576 16.0812C11.4436 16.2219 11.0036 16.4621 10.8856 16.4993C10.8616 16.5055 10.8356 16.5179 10.8256 16.5262C10.8116 16.5386 10.6296 16.609 10.4176 16.6877C10.0276 16.8305 9.28565 16.9857 8.68968 17.0499C8.30369 17.0892 8.24169 17.0913 6.75575 17.0913H5.2178V11.7199L9.63564 11.7116C12.0655 11.7075 14.0675 11.7012 14.0835 11.6971C14.1015 11.695 14.1195 11.7075 14.1255 11.7219Z" fill="white"/>
</svg>
